inDegrees=no
DataType=double
version=3
OpenSimVersion=4.4-2022-10-11-798caa840
endheader
time	elv_angle	shoulder_elv	shoulder_rot	elbow_flexion	pro_sup	deviation	flexion
2.4020851434	1.0314608812	1.2152905464	0.4363323152	1.1341748238	0.0000000000	0.0000000000	0.0000000000
2.4062554301	1.0314608812	1.2152905464	0.4363323152	1.1341748238	0.0000000000	0.0000000000	0.0000000000
2.4104257168	1.0314608812	1.2152905464	0.4363323152	1.1341748238	0.0000000000	0.0000000000	0.0000000000
2.4145960035	1.0314608812	1.2152905464	0.4363323152	1.1341748238	0.0000000000	0.0000000000	0.0000000000
2.4187662902	1.0314608812	1.2152905464	0.4363323152	1.1341748238	0.0000000000	0.0000000000	0.0000000000
2.4229365769	1.0314608812	1.2152905464	0.4363323152	1.1341748238	0.0000000000	0.0000000000	0.0000000000
2.4271068636	1.0314608812	1.2152905464	0.4363323152	1.1341748238	0.0000000000	0.0000000000	0.0000000000
2.4312771503	1.0314608812	1.2152905464	0.4363323152	1.1341748238	0.0000000000	0.0000000000	0.0000000000
2.4354474370	1.0314608812	1.2152905464	0.4363323152	1.1341748238	0.0000000000	0.0000000000	0.0000000000
2.4396177237	1.0314608812	1.2152905464	0.4363323152	1.1341748238	0.0000000000	0.0000000000	0.0000000000
2.4437880104	1.0314608812	1.2152905464	0.4363323152	1.1341748238	0.0000000000	0.0000000000	0.0000000000
2.4479582971	1.0314608812	1.2152905464	0.4363323152	1.1341748238	0.0000000000	0.0000000000	0.0000000000
2.4521285838	1.0314608812	1.2152905464	0.4363323152	1.1341748238	0.0000000000	0.0000000000	0.0000000000
2.4562988705	1.0314608812	1.2152905464	0.4363323152	1.1341748238	0.0000000000	0.0000000000	0.0000000000
2.4604691573	1.0314608812	1.2152905464	0.4363323152	1.1341748238	0.0000000000	0.0000000000	0.0000000000
2.4646394440	1.0314608812	1.2152905464	0.4363323152	1.1341748238	0.0000000000	0.0000000000	0.0000000000
2.4688097307	1.0314608812	1.2152905464	0.4363323152	1.1341748238	0.0000000000	0.0000000000	0.0000000000
2.4729800174	1.0314608812	1.2152905464	0.4363323152	1.1341748238	0.0000000000	0.0000000000	0.0000000000
2.4771503041	1.0314608812	1.2152905464	0.4363323152	1.1341748238	0.0000000000	0.0000000000	0.0000000000
2.4813205908	1.0314608812	1.2152905464	0.4363323152	1.1341748238	0.0000000000	0.0000000000	0.0000000000
2.4854908775	1.0314608812	1.2152905464	0.4363323152	1.1341748238	0.0000000000	0.0000000000	0.0000000000
2.4896611642	1.0314608812	1.2152905464	0.4363323152	1.1341748238	0.0000000000	0.0000000000	0.0000000000
2.4938314509	1.0314608812	1.2152905464	0.4363323152	1.1341748238	0.0000000000	0.0000000000	0.0000000000
2.4980017376	1.0314608812	1.2152905464	0.4363323152	1.1341748238	0.0000000000	0.0000000000	0.0000000000
2.5021720243	1.0314608812	1.2152905464	0.4363323152	1.1341748238	0.0000000000	0.0000000000	0.0000000000
2.5063423110	1.0314608812	1.2152905464	0.4363323152	1.1341748238	0.0000000000	0.0000000000	0.0000000000
2.5105125977	1.0314608812	1.2152905464	0.4363323152	1.1341748238	0.0000000000	0.0000000000	0.0000000000
2.5146828844	1.0314608812	1.2152905464	0.4363323152	1.1341748238	0.0000000000	0.0000000000	0.0000000000
2.5188531712	1.0314608812	1.2152905464	0.4363323152	1.1341748238	0.0000000000	0.0000000000	0.0000000000
2.5230234579	1.0314608812	1.2152905464	0.4363323152	1.1341748238	0.0000000000	0.0000000000	0.0000000000
2.5271937446	1.0314608812	1.2152905464	0.4363323152	1.1341748238	0.0000000000	0.0000000000	0.0000000000
2.5313640313	1.0314608812	1.2152905464	0.4363323152	1.1341748238	0.0000000000	0.0000000000	0.0000000000
2.5355343180	1.0314608812	1.2152905464	0.4363323152	1.1341748238	0.0000000000	0.0000000000	0.0000000000
2.5397046047	1.0314608812	1.2152905464	0.4363323152	1.1341748238	0.0000000000	0.0000000000	0.0000000000
2.5438748914	1.0314608812	1.2152905464	0.4363323152	1.1341748238	0.0000000000	0.0000000000	0.0000000000
2.5480451781	1.0314608812	1.2152905464	0.4363323152	1.1341748238	0.0000000000	0.0000000000	0.0000000000
2.5522154648	1.0314608812	1.2152905464	0.4363323152	1.1341748238	0.0000000000	0.0000000000	0.0000000000
2.5563857515	1.0314608812	1.2152905464	0.4363323152	1.1341748238	0.0000000000	0.0000000000	0.0000000000
2.5605560382	1.0314608812	1.2152905464	0.4363323152	1.1341748238	0.0000000000	0.0000000000	0.0000000000
2.5647263249	1.0314608812	1.2152905464	0.4363323152	1.1341748238	0.0000000000	0.0000000000	0.0000000000
2.5688966116	1.0314608812	1.2152905464	0.4363323152	1.1341748238	0.0000000000	0.0000000000	0.0000000000
2.5730668983	1.0314608812	1.2152905464	0.4363323152	1.1341748238	0.0000000000	0.0000000000	0.0000000000
2.5772371851	1.0314608812	1.2152905464	0.4363323152	1.1341748238	0.0000000000	0.0000000000	0.0000000000
2.5814074718	1.0314608812	1.2152905464	0.4363323152	1.1341748238	0.0000000000	0.0000000000	0.0000000000
2.5855777585	1.0314608812	1.2152905464	0.4363323152	1.1341748238	0.0000000000	0.0000000000	0.0000000000
2.5897480452	1.0314608812	1.2152905464	0.4363323152	1.1341748238	0.0000000000	0.0000000000	0.0000000000
2.5939183319	1.0314608812	1.2152905464	0.4363323152	1.1341748238	0.0000000000	0.0000000000	0.0000000000
2.5980886186	1.0314608812	1.2152905464	0.4363323152	1.1341748238	0.0000000000	0.0000000000	0.0000000000
2.6022589053	1.0314608812	1.2152905464	0.4363323152	1.1341748238	0.0000000000	0.0000000000	0.0000000000
2.6064291920	1.0314608812	1.2152905464	0.4363323152	1.1341748238	0.0000000000	0.0000000000	0.0000000000
2.6105994787	1.0314608812	1.2152905464	0.4363323152	1.1341748238	0.0000000000	0.0000000000	0.0000000000
2.6147697654	1.0314608812	1.2152905464	0.4363323152	1.1341748238	0.0000000000	0.0000000000	0.0000000000
2.6189400521	1.0314608812	1.2152905464	0.4363323152	1.1341748238	0.0000000000	0.0000000000	0.0000000000
2.6231103388	1.0314608812	1.2152905464	0.4363323152	1.1341748238	0.0000000000	0.0000000000	0.0000000000
2.6272806255	1.0314608812	1.2152905464	0.4363323152	1.1341748238	0.0000000000	0.0000000000	0.0000000000
2.6314509123	1.0314608812	1.2152905464	0.4363323152	1.1341748238	0.0000000000	0.0000000000	0.0000000000
2.6356211990	1.0314608812	1.2152905464	0.4363323152	1.1341748238	0.0000000000	0.0000000000	0.0000000000
2.6397914857	1.0314608812	1.2152905464	0.4363323152	1.1341748238	0.0000000000	0.0000000000	0.0000000000
2.6439617724	1.0314608812	1.2152905464	0.4363323152	1.1341748238	0.0000000000	0.0000000000	0.0000000000
2.6481320591	1.0314608812	1.2152905464	0.4363323152	1.1341748238	0.0000000000	0.0000000000	0.0000000000
2.6523023458	1.0314608812	1.2152905464	0.4363323152	1.1341748238	0.0000000000	0.0000000000	0.0000000000
2.6564726325	1.0314594507	1.2152903080	0.4363323152	1.1341776848	0.0000000000	0.0000000000	0.0000000000
2.6606429192	1.0314484835	1.2152884007	0.4363323152	1.1341981888	0.0000000000	0.0000000000	0.0000000000
2.6648132059	1.0314197540	1.2152832747	0.4363323152	1.1342529058	0.0000000000	0.0000000000	0.0000000000
2.6689834926	1.0313643217	1.2152732611	0.4363323152	1.1343580484	0.0000000000	0.0000000000	0.0000000000
2.6731537793	1.0312747955	1.2152571678	0.4363323152	1.1345280409	0.0000000000	0.0000000000	0.0000000000
2.6773240660	1.0311433077	1.2152335644	0.4363323152	1.1347773075	0.0000000000	0.0000000000	0.0000000000
2.6814943527	1.0309633017	1.2152013779	0.4363323152	1.1351189613	0.0000000000	0.0000000000	0.0000000000
2.6856646394	1.0307279825	1.2151594162	0.4363323152	1.1355654001	0.0000000000	0.0000000000	0.0000000000
2.6898349262	1.0304310322	1.2151063681	0.4363323152	1.1361283064	0.0000000000	0.0000000000	0.0000000000
2.6940052129	1.0300670862	1.2150417566	0.4363323152	1.1368184090	0.0000000000	0.0000000000	0.0000000000
2.6981754996	1.0296307802	1.2149647474	0.4363323152	1.1376452446	0.0000000000	0.0000000000	0.0000000000
2.7023457863	1.0291171074	1.2148742676	0.4363323152	1.1386183500	0.0000000000	0.0000000000	0.0000000000
2.7065160730	1.0285218954	1.2147700787	0.4363323152	1.1397454739	0.0000000000	0.0000000000	0.0000000000
2.7106863597	1.0278407335	1.2146517038	0.4363323152	1.1410347223	0.0000000000	0.0000000000	0.0000000000
2.7148566464	1.0270702839	1.2145186663	0.4363323152	1.1424919367	0.0000000000	0.0000000000	0.0000000000
2.7190269331	1.0262072086	1.2143708467	0.4363323152	1.1441234350	0.0000000000	0.0000000000	0.0000000000
2.7231972198	1.0252485275	1.2142083645	0.4363323152	1.1459343433	0.0000000000	0.0000000000	0.0000000000
2.7273675065	1.0241917372	1.2140309811	0.4363323152	1.1479288340	0.0000000000	0.0000000000	0.0000000000
2.7315377932	1.0230346918	1.2138391733	0.4363323152	1.1501103640	0.0000000000	0.0000000000	0.0000000000
2.7357080799	1.0217757225	1.2136329412	0.4363323152	1.1524820328	0.0000000000	0.0000000000	0.0000000000
2.7398783666	1.0204132795	1.2134131193	0.4363323152	1.1550457478	0.0000000000	0.0000000000	0.0000000000
2.7440486533	1.0189462900	1.2131800652	0.4363323152	1.1578031778	0.0000000000	0.0000000000	0.0000000000
2.7482189401	1.0173740387	1.2129344940	0.4363323152	1.1607549191	0.0000000000	0.0000000000	0.0000000000
2.7523892268	1.0156960487	1.2126770020	0.4363323152	1.1639009714	0.0000000000	0.0000000000	0.0000000000
2.7565595135	1.0139123201	1.2124089003	0.4363323152	1.1672409773	0.0000000000	0.0000000000	0.0000000000
2.7607298002	1.0120228529	1.2121307850	0.4363323152	1.1707739830	0.0000000000	0.0000000000	0.0000000000
2.7649000869	1.0100282431	1.2118442059	0.4363323152	1.1744978428	0.0000000000	0.0000000000	0.0000000000
2.7690703736	1.0079290867	1.2115498781	0.4363323152	1.1784107685	0.0000000000	0.0000000000	0.0000000000
2.7732406603	1.0057268143	1.2112492323	0.4363323152	1.1825095415	0.0000000000	0.0000000000	0.0000000000
2.7774109470	1.0034222603	1.2109436989	0.4363323152	1.1867913008	0.0000000000	0.0000000000	0.0000000000
2.7815812337	1.0010172129	1.2106347084	0.4363323152	1.1912521124	0.0000000000	0.0000000000	0.0000000000
2.7857515204	0.9985136986	1.2103234529	0.4363323152	1.1958875656	0.0000000000	0.0000000000	0.0000000000
2.7899218071	0.9959133267	1.2100117207	0.4363323152	1.2006932497	0.0000000000	0.0000000000	0.0000000000
2.7940920938	0.9932186604	1.2097008228	0.4363323152	1.2056638002	0.0000000000	0.0000000000	0.0000000000
2.7982623805	0.9904321432	1.2093924284	0.4363323152	1.2107940912	0.0000000000	0.0000000000	0.0000000000
2.8024326672	0.9875563383	1.2090880871	0.4363323152	1.2160784006	0.0000000000	0.0000000000	0.0000000000
2.8066029540	0.9845941067	1.2087891102	0.4363323152	1.2215107679	0.0000000000	0.0000000000	0.0000000000
2.8107732407	0.9815485477	1.2084974051	0.4363323152	1.2270846367	0.0000000000	0.0000000000	0.0000000000
2.8149435274	0.9784229994	1.2082142830	0.4363323152	1.2327934504	0.0000000000	0.0000000000	0.0000000000
2.8191138141	0.9752206802	1.2079412937	0.4363323152	1.2386305332	0.0000000000	0.0000000000	0.0000000000
2.8232841008	0.9719452262	1.2076798677	0.4363323152	1.2445886135	0.0000000000	0.0000000000	0.0000000000
2.8274543875	0.9686001539	1.2074315548	0.4363323152	1.2506607771	0.0000000000	0.0000000000	0.0000000000
2.8316246742	0.9651893973	1.2071975470	0.4363323152	1.2568392754	0.0000000000	0.0000000000	0.0000000000
2.8357949609	0.9617167711	1.2069795132	0.4363323152	1.2631170750	0.0000000000	0.0000000000	0.0000000000
2.8399652476	0.9581862688	1.2067781687	0.4363323152	1.2694864273	0.0000000000	0.0000000000	0.0000000000
2.8441355343	0.9546020031	1.2065950632	0.4363323152	1.2759391069	0.0000000000	0.0000000000	0.0000000000
2.8483058210	0.9509682059	1.2064311504	0.4363323152	1.2824680805	0.0000000000	0.0000000000	0.0000000000
2.8524761077	0.9472890496	1.2062875032	0.4363323152	1.2890650034	0.0000000000	0.0000000000	0.0000000000
2.8566463944	0.9435690641	1.2061649561	0.4363323152	1.2957220078	0.0000000000	0.0000000000	0.0000000000
2.8608166811	0.9398123622	1.2060643435	0.4363323152	1.3024314642	0.0000000000	0.0000000000	0.0000000000
2.8649869679	0.9360235333	1.2059862614	0.4363323152	1.3091852665	0.0000000000	0.0000000000	0.0000000000
2.8691572546	0.9322069883	1.2059315443	0.4363323152	1.3159754276	0.0000000000	0.0000000000	0.0000000000
2.8733275413	0.9283670783	1.2059005499	0.4363323152	1.3227943182	0.0000000000	0.0000000000	0.0000000000
2.8774978280	0.9245086312	1.2058936357	0.4363323152	1.3296339512	0.0000000000	0.0000000000	0.0000000000
